<svg id="ls_close_gfx" xmlns="http://www.w3.org/2000/svg" width="36.953" height="36.953" viewBox="0 0 36.953 36.953">
  <path id="Path_419" data-name="Path 419" d="M407.527,50.929a3.3,3.3,0,0,1,0,4.667l-2.334,2.338a3.3,3.3,0,0,1-4.672,0l-10.5-10.5-10.5,10.5a3.3,3.3,0,0,1-4.672,0L372.508,55.6a3.3,3.3,0,0,1,0-4.667l10.5-10.5-10.5-10.5a3.3,3.3,0,0,1,0-4.672l2.334-2.334a3.3,3.3,0,0,1,4.672,0l10.5,10.5,10.5-10.5a3.3,3.3,0,0,1,4.672,0l2.334,2.334a3.3,3.3,0,0,1,0,4.672l-10.5,10.5Z" transform="translate(-371.541 -21.949)" fill="#ff9e18"/>
</svg>
