<svg xmlns="http://www.w3.org/2000/svg" width="34.862" height="34.862" viewBox="0 0 34.862 34.862">
  <path id="ls_li_icn2" d="M297.386,107.085v29.834a2.507,2.507,0,0,1-2.49,2.514H265.007a2.5,2.5,0,0,1-2.483-2.514V107.085a2.5,2.5,0,0,1,2.483-2.514H294.9A2.508,2.508,0,0,1,297.386,107.085Zm-23.912,5.463a3,3,0,1,0-3,3A3,3,0,0,0,273.473,112.548Zm-.405,21.9V117.814H267.9v16.638h5.173Zm19.361-9.119c0-4.482-.972-7.929-6.2-7.929a5.444,5.444,0,0,0-4.894,2.685h-.07v-2.274h-4.957v16.638h5.166v-8.234c0-2.169.413-4.271,3.1-4.271,2.646,0,2.687,2.481,2.687,4.412v8.092h5.166Z" transform="translate(-262.524 -104.571)" fill="#ff9e18"/>
</svg>
