<svg id="ls_li_icn" xmlns="http://www.w3.org/2000/svg" width="25" height="25" viewBox="0 0 25 25">
  <path id="Path_418" data-name="Path 418" d="M287.524,106.374v21.394a1.8,1.8,0,0,1-1.786,1.8H264.3a1.793,1.793,0,0,1-1.781-1.8V106.374a1.794,1.794,0,0,1,1.781-1.8h21.434A1.8,1.8,0,0,1,287.524,106.374Zm-17.148,3.917a2.148,2.148,0,1,0-2.149,2.149A2.153,2.153,0,0,0,270.376,110.291ZM270.085,126V114.068h-3.71V126h3.71Zm13.884-6.54c0-3.214-.7-5.686-4.447-5.686a3.9,3.9,0,0,0-3.51,1.925h-.05v-1.631h-3.554V126h3.7v-5.9c0-1.556.3-3.063,2.226-3.063,1.9,0,1.927,1.779,1.927,3.164V126h3.7Z" transform="translate(-262.524 -104.571)" fill="#00b2e3"/>
</svg>
