<svg xmlns="http://www.w3.org/2000/svg" width="32" height="32" viewBox="0 0 32 32">
  <g id="nav_linkbtn_m" transform="translate(-309.445 -240.445)">
    <circle id="Ellipse_36" data-name="Ellipse 36" cx="16" cy="16" r="16" transform="translate(309.445 240.445)" fill="#ff9e18"/>
    <g id="nav_arrow_m" transform="translate(319.69 250.597)">
      <path id="Path_253" data-name="Path 253" d="M1306.609,62.5a.62.62,0,0,1,.873,0l4.985,4.985a.621.621,0,0,1,0,.874l-4.985,4.983a.617.617,0,0,1-.873,0l-.566-.565a.522.522,0,0,1-.192-.437.639.639,0,0,1,.192-.436l3.084-2.954h-7.375a.614.614,0,0,1-.616-.617v-.822a.614.614,0,0,1,.616-.616h7.375l-3.084-2.955a.639.639,0,0,1-.192-.436.523.523,0,0,1,.192-.437Z" transform="translate(-1301.136 -62.321)" fill="#004d71"/>
    </g>
  </g>
</svg>
